<?xml version="1.0" encoding="UTF-8" standalone="no"?>
<!DOCTYPE svg PUBLIC "-//W3C//DTD SVG 1.1//EN" "http://www.w3.org/Graphics/SVG/1.1/DTD/svg11.dtd">
<svg width="100%" height="100%" viewBox="0 0 670 160" version="1.1" xmlns="http://www.w3.org/2000/svg" xmlns:xlink="http://www.w3.org/1999/xlink" xml:space="preserve" xmlns:serif="http://www.serif.com/" style="fill-rule:evenodd;clip-rule:evenodd;stroke-linejoin:round;stroke-miterlimit:2;">
    <g id="Logo-main" transform="matrix(1.001495,0,0,1,0,0)">
        <rect x="0" y="0" width="669" height="160"/>
        <g transform="matrix(0.998507,0,0,1,0,0)">
            <g transform="matrix(1,0,0,1,9,0)">
                <path d="M94.517,55.352L65.275,55.352L65.275,112.107L65.472,112.107L85.144,98.658L94.517,98.658C105.148,98.658 114.716,88.642 114.716,77.194C114.715,65.744 105.531,55.352 94.517,55.352Z" style="fill:rgb(246,247,247);fill-rule:nonzero;"/>
            </g>
            <g transform="matrix(1,0,0,1,29,0)">
                <path d="M192.22,72.023C192.22,78.673 187.778,84.738 178.629,84.738L169.453,84.738L169.453,98.009L164.665,98.009L164.665,59.283L178.629,59.283C187.778,59.283 192.22,65.533 192.22,72.023ZM187.486,72.023C187.486,68.087 184.906,63.618 178.735,63.618L169.452,63.618L169.452,80.428L178.735,80.428C184.906,80.428 187.486,75.907 187.486,72.023ZM207.677,78.567C207.677,67.157 215.895,58.645 227.438,58.645C239.008,58.645 247.227,67.157 247.227,78.567C247.227,90.056 238.956,98.648 227.438,98.648C215.948,98.648 207.677,90.056 207.677,78.567ZM242.387,78.567C242.387,69.523 236.216,63.167 227.439,63.167C218.662,63.167 212.518,69.523 212.518,78.567C212.518,87.69 218.715,94.127 227.439,94.127C236.189,94.126 242.387,87.689 242.387,78.567ZM292.485,72.023C292.485,76.25 290.69,80.241 287.032,82.588C284.936,83.933 282.227,84.738 278.894,84.738L269.718,84.738L269.718,98.009L264.93,98.009L264.93,59.283L278.894,59.283C288.044,59.283 292.485,65.533 292.485,72.023ZM287.751,72.023C287.751,68.087 285.171,63.618 279,63.618L269.717,63.618L269.717,80.428L279,80.428C285.172,80.428 287.751,75.907 287.751,72.023ZM307.454,93.009L309.795,89.205C312.401,91.839 316.018,94.073 320.621,94.073C325.46,94.073 329.158,91.332 329.158,87.609C329.158,83.966 326.02,81.466 320.515,80.002C313.2,78.14 308.571,74.443 308.571,68.645C308.571,62.688 314.024,58.645 320.806,58.645C325.062,58.645 328.998,60.001 331.712,62.422L329.664,66.331C327.721,64.602 324.664,63.193 320.86,63.193C316.657,63.193 313.439,65.639 313.439,68.725C313.439,71.943 316.125,74.204 321.26,75.56C329.132,77.608 333.707,81.544 333.707,87.689C333.707,94.312 328.041,98.647 320.594,98.647C315.434,98.648 310.593,96.44 307.454,93.009ZM381.283,98.009L375.724,98.009L364.712,81.385C363.622,79.817 362.132,79.097 360.669,79.097L355.802,79.097L355.802,98.009L350.935,98.009L350.935,59.283L355.802,59.283L355.802,74.922L359.686,74.922C361.121,74.922 362.398,73.991 363.622,72.555L374.5,59.283L380.165,59.283L367.373,74.976C366.947,75.508 366.496,75.959 366.016,76.359C367,76.944 367.93,77.768 368.675,78.885L381.283,98.009ZM427.091,98.009L421.744,98.009L414.218,84.258C413.526,83.007 412.516,82.555 411.291,82.449L402.621,82.449L402.621,98.009L397.754,98.009L397.754,59.283L413.792,59.283C422.091,59.283 426.053,65.214 426.053,70.853C426.053,75.454 423.5,80.189 418.127,81.838C418.154,81.838 418.154,81.864 418.154,81.864L427.091,98.009ZM402.621,78.168L413.418,78.168C418.712,78.168 421.239,74.604 421.239,70.906C421.239,67.316 418.686,63.618 413.418,63.618L402.621,63.618L402.621,78.168ZM470.891,88.594L451.369,88.594L447.379,98.009L442.299,98.009L459.136,58.83L463.124,58.83L479.961,98.009L474.881,98.009L470.891,88.594ZM469.242,84.684L463.098,70.189L461.13,64.949L459.161,70.189L453.017,84.684L469.242,84.684ZM500.74,63.618L500.74,75.082L516.034,75.082L516.034,79.072L500.74,79.072L500.74,98.009L495.9,98.009L495.9,59.283L519.227,59.283L519.227,63.618L500.74,63.618ZM545.074,63.618L534.434,63.618L534.434,59.283L560.527,59.283L560.527,63.618L549.915,63.618L549.915,98.009L545.074,98.009L545.074,63.618Z" style="fill:rgb(246,247,247);fill-rule:nonzero;"/>
            </g>
        </g>
    </g>
</svg>
